# xmcd CD database file
#
# Track frame offsets:
#	150
#	15387
#	31422
#	52905
#	67482
#	85760
#	94842
#	114625
#	126315
#	141750
#
# Disc length: 2112 seconds
#
# Revision: 1
# Processed by: cddbd v1.4PL0 Copyright (c) Steve Scherf et al.
# Submitted via: CDex 1.50
#
DISCID=87083e0a
DTITLE=Jerry Reed - Pickin'
DYEAR=1998
DGENRE=Country
TTITLE0=Does Anybody Want To Boogie
TTITLE1=My Priscilla
TTITLE2=Pickin'
TTITLE3=My Gypsy Heart
TTITLE4=Blindsided Me
TTITLE5=Reed's Rag
TTITLE6=Talk The Talk and Walk The Walk
TTITLE7=Sassy
TTITLE8=Case Of The Blues
TTITLE9=Lottie
EXTD=YEAR: 1998
EXTT0=
EXTT1=
EXTT2=
EXTT3=
EXTT4=
EXTT5=
EXTT6=
EXTT7=
EXTT8=
EXTT9=
PLAYORDER=
